PathFileType	4	(X/Y/Z)	C:\Users\WrightLab\Desktop\Jo\P2_Trial12.trc
DataRate	CameraRate	NumFrames	NumMarkers	Units	OrigDataRate	OrigDataStartFrame	OrigNumFrames
100.00	100.00	       82	19	mm	100.00	490	       653
Frame#	Time	Headset_Front			Headset_Back			Headset_Left			Headset_Right			Left_Shoulder			Right_Shoulder			Sternum			C7			Left Elbow			Right Elbow			Left Wrist			Right Wrist			Left ASIS			Right ASIS			S2			Left Knee			Right Knee			Left Ankle			Right Ankle			
		X1	Y1	Z1	X2	Y2	Z2	X3	Y3	Z3	X4	Y4	Z4	X5	Y5	Z5	X6	Y6	Z6	X7	Y7	Z7	X8	Y8	Z8	X9	Y9	Z9	X10	Y10	Z10	X11	Y11	Z11	X12	Y12	Z12	X13	Y13	Z13	X14	Y14	Z14	X15	Y15	Z15	X16	Y16	Z16	X17	Y17	Z17	X18	Y18	Z18	X19	Y19	Z19	

490	4.890							-119.76410	1737.39697	2383.82520																-126.68394	1165.41162	2654.27075				-82.27015	933.66754	2724.67627	-200.99249	992.46472	2052.22632	-275.48743	1115.82202	2389.74634	-269.14490	1086.07715	2256.45386				-376.80362	641.87842	2691.09155	-190.10307	585.31049	2242.58496							
491	4.900							-123.04781	1738.17822	2388.65869																-141.48178	1166.28406	2657.59644				-98.50954	936.10944	2730.54541	-189.33214	990.35840	2048.57300	-280.14844	1118.63232	2390.85205	-268.86230	1086.81421	2256.65845																
492	4.910							-126.43735	1739.34680	2393.07495																-156.96698	1169.23267	2661.58154				-115.61305	938.70331	2736.76978	-176.28841	987.55621	2045.73132																						
493	4.920							-129.87456	1740.39600	2397.39038																-172.32664	1170.60217	2663.41284				-133.50479	941.20441	2742.55859	-163.63748	985.87952	2043.75305																						
494	4.930							-133.05055	1741.19702	2401.01245																-188.01608	1172.37341	2665.59155				-151.60776	944.99280	2747.82129	-150.93033	983.81226	2041.34998																						
495	4.940							-136.41470	1742.66528	2403.96118																-203.37408	1174.83020	2667.85864				-170.30472	947.90637	2753.41772																									
496	4.950							-140.00848	1744.15491	2407.08008																-218.42809	1177.58020	2669.01172				-189.47195	952.12488	2757.93140																									
497	4.960							-143.49620	1745.82031	2410.78345																-232.84352	1179.73755	2668.35107				-208.26932	956.25665	2761.95850																									
498	4.970							-146.80983	1747.89343	2413.91870																-246.32825	1182.27771	2667.65503				-226.37477	960.35535	2764.14209																									
499	4.980							-151.03078	1750.26184	2417.59082																						-245.19554	965.13092	2767.10229																									
500	4.990							-155.06097	1753.04150	2420.64526																						-263.15524	969.92053	2768.42773																									
501	5.000							-158.53522	1755.64722	2423.67773																						-280.09216	974.89746	2769.31274																									
502	5.010							-162.55478	1758.51819	2426.72290																																																	
503	5.020							-166.88933	1761.39441	2429.73511																																																	
504	5.030							-170.45981	1764.57800	2432.94043																																																	
505	5.040																																																										
506	5.050																																																										
507	5.060																																																										
508	5.070																																																										
509	5.080																																																										
510	5.090																																																										
511	5.100																																																										
512	5.110																																																										
513	5.120																																																										
514	5.130																																																										
515	5.140																																																										
516	5.150																																																										
517	5.160																																																										
518	5.170																																																										
519	5.180																																																										
520	5.190																																																										
521	5.200																																																										
522	5.210																																																										
523	5.220																																																										
524	5.230																																																										
525	5.240																																																										
526	5.250																																																										
527	5.260																																																										
528	5.270																																																										
529	5.280																																																										
530	5.290																																																										
531	5.300																																																										
532	5.310																																																										
533	5.320																																																										
534	5.330																																																										
535	5.340																																																										
536	5.350																																																										
537	5.360																																																										
538	5.370																																																										
539	5.380																																																										
540	5.390																																																										
541	5.400																																																										
542	5.410																																																										
543	5.420																																																										
544	5.430																																																										
545	5.440																																																										
546	5.450																																																										
547	5.460																																																										
548	5.470																																																										
549	5.480																																																										
550	5.490																																																										
551	5.500																																																										
552	5.510																																																										
553	5.520																																																										
554	5.530																																																										
555	5.540																																																										
556	5.550																																																										
557	5.560																																																										
558	5.570																																																										
559	5.580																																																										
560	5.590																																																										
561	5.600																																																										
562	5.610																																																										
563	5.620																																																										
564	5.630																																																										
565	5.640																																																										
566	5.650																																																										
567	5.660																																																										
568	5.670																																																										
569	5.680																																																										
570	5.690																																																										
571	5.700																																																										
